<?xml version="1.0" encoding="UTF-8"?>
<!DOCTYPE svg PUBLIC "-//W3C//DTD SVG 1.1//EN" "http://www.w3.org/Graphics/SVG/1.1/DTD/svg11.dtd">
<!-- Creator: CorelDRAW 2017 -->
<svg xmlns="http://www.w3.org/2000/svg" xml:space="preserve" width="210mm" height="297mm" version="1.1" style="shape-rendering:geometricPrecision; text-rendering:geometricPrecision; image-rendering:optimizeQuality; fill-rule:evenodd; clip-rule:evenodd"
viewBox="0 0 21000 29700"
 xmlns:xlink="http://www.w3.org/1999/xlink">
 <defs>
  <style type="text/css">
   <![CDATA[
    .fil4 {fill:#7D3F00}
    .fil5 {fill:#92BA00}
    .fil0 {fill:#94E2FF}
    .fil6 {fill:#A0CC00}
    .fil3 {fill:#A65605}
    .fil1 {fill:#A8E8FF}
    .fil2 {fill:#BDEDFF}
    .fil8 {fill:#C7721C}
    .fil12 {fill:#CFF2FF}
    .fil7 {fill:#D5FC49}
    .fil11 {fill:#E0F7FF}
    .fil10 {fill:#EBFAFF}
    .fil9 {fill:white}
   ]]>
  </style>
 </defs>
 <g id="Слой_x0020_1">
  <metadata id="CorelCorpID_0Corel-Layer"/>
  <rect class="fil0" x="2582.91" y="2619.96" width="16000" height="12000"/>
  <path class="fil1" d="M18582.91 5444.84l0 9175.13 -16000 0 0 -9276.71c579.95,42.22 1155.2,203.75 1687.83,487.82 1229.48,655.72 2715.21,606.66 3898.75,-128.74 1295.1,-804.71 2934.67,-804.71 4229.77,0 1076.52,668.9 2434.04,690.11 3530.93,55.18 822,-475.81 1782.57,-572.1 2652.72,-312.68z"/>
  <path class="fil2" d="M18582.91 11412.55l0 3207.42 -16000 0 0 -3797.02c337.32,59.28 668.14,168.19 981.27,327.08 1069.76,542.83 2312.45,634.31 3450.17,254 1166.82,-390.04 2417.67,-455.88 3618.99,-190.5 1278.31,282.39 2603.61,275.16 3878.76,-21.16 1356.35,-315.19 2767.97,-235.35 4070.81,220.18z"/>
  <rect class="fil3" x="2582.91" y="12593.29" width="16000" height="2026.68"/>
  <path class="fil4" d="M18582.91 13923.19l0 -1329.9 -16000 0 0 523.88c218.55,-60.39 451.3,-2.92 643.58,173.26 294.18,269.54 677.76,286.17 984.25,42.68 453.56,-360.32 1030.54,-267.02 1407.59,227.62 466.23,611.62 1199.96,654.51 1703.92,99.59 454.38,-500.33 1106.97,-506.27 1566.34,-14.24 455.17,487.53 1100.58,487.53 1555.75,0 516.11,-552.8 1242.91,-576.06 1778,-56.9 307.81,298.66 727.73,275.13 1016,-56.9 567.21,-653.32 1414.12,-603.56 1936.76,113.8 534.34,733.43 1378.11,862.55 2021.42,309.34 427.5,-367.61 964.32,-368.4 1386.39,-32.23z"/>
  <path class="fil5" d="M18582.91 13582.65l0 -989.36 -16000 0 0 389.73c218.55,-44.92 451.3,-2.17 643.58,128.9 294.18,200.52 677.76,212.89 984.25,31.75 453.56,-268.06 1030.54,-198.65 1407.59,169.33 466.23,455.01 1199.96,486.92 1703.92,74.09 454.38,-372.21 1106.97,-376.63 1566.34,-10.59 455.17,362.69 1100.58,362.69 1555.75,0 516.11,-411.25 1242.91,-428.55 1778,-42.33 307.81,222.18 727.73,204.68 1016,-42.33 567.21,-486.03 1414.12,-449.01 1936.76,84.66 534.34,545.62 1378.11,641.68 2021.42,230.13 427.5,-273.48 964.32,-274.07 1386.39,-23.98z"/>
  <path class="fil6" d="M18582.91 13087.97l0 -494.68 -16000 0 0 194.86c218.55,-22.46 451.3,-1.08 643.58,64.45 294.18,100.26 677.76,106.45 984.25,15.88 453.56,-134.03 1030.54,-99.33 1407.59,84.66 466.23,227.51 1199.96,243.46 1703.92,37.05 454.38,-186.11 1106.97,-188.32 1566.34,-5.3 455.17,181.35 1100.58,181.35 1555.75,0 516.11,-205.62 1242.91,-214.27 1778,-21.16 307.81,111.09 727.73,102.34 1016,-21.17 567.21,-243.01 1414.12,-224.5 1936.76,42.33 534.34,272.81 1378.11,320.84 2021.42,115.07 427.5,-136.74 964.32,-137.04 1386.39,-11.99z"/>
  <rect class="fil7" x="2582.91" y="12498.03" width="16000" height="116.42"/>
  <path class="fil8" d="M3114.66 13798.51c137.71,0 249.35,111.64 249.35,249.35 0,137.71 -111.64,249.35 -249.35,249.35 -137.71,0 -249.35,-111.64 -249.35,-249.35 0,-137.71 111.64,-249.35 249.35,-249.35zm746.64 325.35c123.47,0 223.57,100.1 223.57,223.57 0,123.47 -100.1,223.57 -223.57,223.57 -123.47,0 -223.57,-100.1 -223.57,-223.57 0,-123.47 100.1,-223.57 223.57,-223.57zm-972.35 -804.34c71.6,0 129.65,58.05 129.65,129.65 0,71.6 -58.05,129.65 -129.65,129.65 -71.6,0 -129.65,-58.05 -129.65,-129.65 0,-71.6 58.05,-129.65 129.65,-129.65zm12776.77 977.68c45.3,0 82.02,36.72 82.02,82.02 0,45.3 -36.72,82.02 -82.02,82.02 -45.3,0 -82.02,-36.72 -82.02,-82.02 0,-45.3 36.72,-82.02 82.02,-82.02zm-3517.66 -144.15c63.55,0 115.07,51.52 115.07,115.07 0,63.55 -51.52,115.07 -115.07,115.07 -63.55,0 -115.07,-51.52 -115.07,-115.07 0,-63.55 51.52,-115.07 115.07,-115.07zm-1871.22 -153.49c82.19,0 148.82,66.63 148.82,148.82 0,82.19 -66.63,148.82 -148.82,148.82 -82.19,0 -148.82,-66.63 -148.82,-148.82 0,-82.19 66.63,-148.82 148.82,-148.82zm-566.86 396.88c42.38,0 76.74,34.36 76.74,76.74 0,42.38 -34.36,76.74 -76.74,76.74 -42.38,0 -76.74,-34.36 -76.74,-76.74 0,-42.38 34.36,-76.74 76.74,-76.74zm7647.13 -386.28c79.26,0 143.52,64.26 143.52,143.52 0,79.26 -64.26,143.52 -143.52,143.52 -79.26,0 -143.52,-64.26 -143.52,-143.52 0,-79.26 64.26,-143.52 143.52,-143.52zm1078.85 0c39.45,0 71.43,31.98 71.43,71.43 0,39.45 -31.98,71.43 -71.43,71.43 -39.45,0 -71.43,-31.98 -71.43,-71.43 0,-39.45 31.98,-71.43 71.43,-71.43zm-579.43 -63.5c160.74,0 291.04,130.3 291.04,291.04 0,160.74 -130.3,291.04 -291.04,291.04 -160.74,0 -291.04,-130.3 -291.04,-291.04 0,-160.74 130.3,-291.04 291.04,-291.04zm-883.69 404.84c39.45,0 71.43,31.98 71.43,71.43 0,39.45 -31.98,71.43 -71.43,71.43 -39.45,0 -71.43,-31.98 -71.43,-71.43 0,-39.45 31.98,-71.43 71.43,-71.43zm-2000.24 -343.97c80.37,0 145.52,65.15 145.52,145.52 0,80.37 -65.15,145.52 -145.52,145.52 -80.37,0 -145.52,-65.15 -145.52,-145.52 0,-80.37 65.15,-145.52 145.52,-145.52zm-1314.99 127c68.68,0 124.35,55.67 124.35,124.35 0,68.68 -55.67,124.35 -124.35,124.35 -68.68,0 -124.35,-55.67 -124.35,-124.35 0,-68.68 55.67,-124.35 124.35,-124.35zm660.14 -762c218.46,0 395.55,177.09 395.55,395.55 0,218.46 -177.09,395.55 -395.55,395.55 -218.46,0 -395.55,-177.09 -395.55,-395.55 0,-218.46 177.09,-395.55 395.55,-395.55zm-1488.29 542.4c121.28,0 219.6,98.32 219.6,219.6 0,121.28 -98.32,219.6 -219.6,219.6 -121.28,0 -219.6,-98.32 -219.6,-219.6 0,-121.28 98.32,-219.6 219.6,-219.6zm-2113.62 116.41c73.42,0 132.93,59.51 132.93,132.93 0,73.42 -59.51,132.93 -132.93,132.93 -73.42,0 -132.93,-59.51 -132.93,-132.93 0,-73.42 59.51,-132.93 132.93,-132.93zm744.11 -478.26c178.82,0 323.79,144.97 323.79,323.79 0,178.82 -144.97,323.79 -323.79,323.79 -178.82,0 -323.79,-144.97 -323.79,-323.79 0,-178.82 144.97,-323.79 323.79,-323.79zm-3634.39 -107.83c59.55,0 107.83,48.28 107.83,107.83 0,59.55 -48.28,107.83 -107.83,107.83 -59.55,0 -107.83,-48.28 -107.83,-107.83 0,-59.55 48.28,-107.83 107.83,-107.83zm-449.14 586.09c100.83,0 182.56,81.73 182.56,182.56 0,100.83 -81.73,182.56 -182.56,182.56 -100.83,0 -182.56,-81.73 -182.56,-182.56 0,-100.83 81.73,-182.56 182.56,-182.56zm1539.88 119.06c48.22,0 87.31,39.09 87.31,87.31 0,48.22 -39.09,87.31 -87.31,87.31 -48.22,0 -87.31,-39.09 -87.31,-87.31 0,-48.22 39.09,-87.31 87.31,-87.31zm-682.63 -399.52c220.65,0 399.52,178.87 399.52,399.52 0,220.65 -178.87,399.52 -399.52,399.52 -220.65,0 -399.52,-178.87 -399.52,-399.52 0,-220.65 178.87,-399.52 399.52,-399.52zm-2659.35 365.13c78.73,0 142.55,63.82 142.55,142.55 0,78.73 -63.82,142.55 -142.55,142.55 -78.73,0 -142.55,-63.82 -142.55,-142.55 0,-78.73 63.82,-142.55 142.55,-142.55zm-487.15 -670.76c90.24,0 163.4,73.16 163.4,163.4 0,90.24 -73.16,163.4 -163.4,163.4 -90.24,0 -163.4,-73.16 -163.4,-163.4 0,-90.24 73.16,-163.4 163.4,-163.4zm-433.6 602.61c78.73,0 142.55,63.82 142.55,142.55 0,78.73 -63.82,142.55 -142.55,142.55 -78.73,0 -142.55,-63.82 -142.55,-142.55 0,-78.73 63.82,-142.55 142.55,-142.55zm-428.3 -312.85c55.53,0 100.54,45.01 100.54,100.54 0,55.53 -45.01,100.54 -100.54,100.54 -55.53,0 -100.54,-45.01 -100.54,-100.54 0,-55.53 45.01,-100.54 100.54,-100.54z"/>
  <path class="fil9" d="M5636.02 4238.25l4850.31 0 -660.64 -90.35 -84.69 -101.63c-177.81,-213.4 -489.41,-255.11 -717.1,-96l-11.3 -56.45c-83.56,-417.52 -454.8,-714.79 -880.48,-705.04 -425.69,9.73 -782.95,323.66 -847.33,744.56l-12.8 -11.62c-134.05,-121.87 -320.54,-167.87 -495.88,-122.33 -175.35,45.55 -315.87,176.49 -373.67,348.19l-766.42 90.67z"/>
  <path class="fil9" d="M3852.93 6584.77l4221.68 0 -575.02 -78.64 -73.71 -88.46c-154.77,-185.74 -425.98,-222.05 -624.16,-83.55l-9.83 -49.14c-72.73,-363.4 -395.86,-622.14 -766.37,-613.66 -370.52,8.47 -681.47,281.71 -737.51,648.06l-11.14 -10.11c-116.68,-106.08 -278.99,-146.12 -431.62,-106.48 -152.62,39.64 -274.93,153.62 -325.24,303.06l-667.08 78.92z"/>
  <path class="fil9" d="M10995.84 6303.83l5847.19 0 -796.42 -108.91 -102.1 -122.53c-214.36,-257.25 -590,-307.54 -864.48,-115.72l-13.62 -68.06c-100.74,-503.32 -548.28,-861.69 -1061.45,-849.94 -513.18,11.73 -943.86,390.19 -1021.48,897.59l-15.43 -14.01c-161.6,-146.91 -386.42,-202.37 -597.8,-147.47 -211.39,54.9 -380.79,212.77 -450.47,419.75l-923.94 109.3z"/>
  <path class="fil10" d="M7615.58 8040.25l4850.31 0 -660.64 -90.35 -84.69 -101.63c-177.81,-213.4 -489.41,-255.11 -717.1,-96l-11.3 -56.45c-83.56,-417.52 -454.8,-714.79 -880.48,-705.04 -425.69,9.73 -782.95,323.66 -847.33,744.56l-12.8 -11.62c-134.05,-121.87 -320.54,-167.87 -495.88,-122.33 -175.35,45.55 -315.87,176.49 -373.67,348.19l-766.42 90.67z"/>
  <path class="fil11" d="M14054.43 8488.23l2923.57 0 -398.2 -54.46 -51.05 -61.26c-107.18,-128.63 -295,-153.77 -432.24,-57.86l-6.81 -34.03c-50.37,-251.66 -274.14,-430.84 -530.72,-424.97 -256.59,5.87 -471.93,195.1 -510.74,448.8l-7.71 -7.01c-80.8,-73.46 -193.21,-101.18 -298.9,-73.73 -105.69,27.45 -190.39,106.38 -225.23,209.87l-461.97 54.65z"/>
  <path class="fil11" d="M2759.3 9120.95l2923.57 0 -398.2 -54.46 -51.05 -61.26c-107.18,-128.63 -295,-153.77 -432.24,-57.86l-6.81 -34.03c-50.37,-251.66 -274.14,-430.84 -530.72,-424.97 -256.59,5.87 -471.93,195.1 -510.74,448.8l-7.71 -7.01c-80.8,-73.46 -193.21,-101.18 -298.9,-73.73 -105.69,27.45 -190.39,106.38 -225.23,209.87l-461.97 54.65z"/>
  <path class="fil12" d="M6612.83 9873.66l1576.32 0 -214.71 -29.36 -27.52 -33.03c-57.79,-69.35 -159.06,-82.91 -233.05,-31.2l-3.67 -18.35c-27.16,-135.69 -147.81,-232.3 -286.16,-229.13 -138.34,3.16 -254.45,105.19 -275.37,241.98l-4.16 -3.78c-43.57,-39.6 -104.17,-54.55 -161.16,-39.75 -56.99,14.8 -102.65,57.35 -121.44,113.16l-249.08 29.46z"/>
  <path class="fil12" d="M11335.17 10214.81l2160.89 0 -294.33 -40.25 -37.73 -45.28c-79.22,-95.07 -218.04,-113.65 -319.48,-42.77l-5.03 -25.15c-37.23,-186.01 -202.62,-318.44 -392.27,-314.1 -189.65,4.33 -348.81,144.19 -377.5,331.71l-5.7 -5.18c-59.72,-54.29 -142.8,-74.78 -220.92,-54.5 -78.12,20.29 -140.73,78.63 -166.48,155.13l-341.45 40.39z"/>
  <path class="fil12" d="M16357.47 9485.01l1195.07 0 -162.77 -22.26 -20.87 -25.04c-43.81,-52.58 -120.59,-62.86 -176.69,-23.65l-2.78 -13.91c-20.59,-102.88 -112.06,-176.12 -216.94,-173.72 -104.89,2.4 -192.92,79.75 -208.78,183.45l-3.15 -2.86c-33.03,-30.03 -78.98,-41.36 -122.18,-30.14 -43.21,11.22 -77.83,43.49 -92.07,85.79l-188.84 22.34z"/>
  <path class="fil12" d="M3255.4 10239.62l1195.07 0 -162.77 -22.26 -20.87 -25.04c-43.81,-52.58 -120.59,-62.86 -176.69,-23.65l-2.78 -13.91c-20.59,-102.88 -112.06,-176.12 -216.94,-173.72 -104.89,2.4 -192.92,79.75 -208.78,183.45l-3.15 -2.86c-33.03,-30.03 -78.98,-41.36 -122.18,-30.14 -43.21,11.22 -77.83,43.49 -92.07,85.79l-188.84 22.34z"/>
  <path class="fil9" d="M13304.03 4041.98l3036.53 0 -413.59 -56.56 -53.02 -63.63c-111.32,-133.6 -306.4,-159.71 -448.94,-60.1l-7.07 -35.34c-52.32,-261.39 -284.74,-447.49 -551.23,-441.39 -266.5,6.09 -490.16,202.63 -530.47,466.13l-8.01 -7.27c-83.92,-76.3 -200.67,-105.1 -310.45,-76.59 -109.78,28.52 -197.75,110.5 -233.94,217.99l-479.81 56.76z"/>
 </g>
</svg>
